<?xml version="1.0" encoding="UTF-8"?>
<svg version="1.1" xmlns="http://www.w3.org/2000/svg" width="606" height="233">
<path d="M0 0 C1.98 0 3.96 0 6 0 C6.97705657 2.58771725 7.08528803 3.75351233 6.16723633 6.40673828 C5.72661865 7.28571777 5.28600098 8.16469727 4.83203125 9.0703125 C4.35056641 10.05 3.86910156 11.0296875 3.37304688 12.0390625 C2.85806641 13.05742188 2.34308594 14.07578125 1.8125 15.125 C0.32200628 18.11761679 -1.15813834 21.11222751 -2.59887695 24.12915039 C-3.4965004 25.96834784 -4.44956776 27.78209404 -5.46948242 29.55639648 C-7.44751039 33.36029642 -8.40820369 35.64986774 -7.13696289 39.85449219 C-5.57681731 42.9835064 -3.83461927 45.87607269 -1.9375 48.8125 C-1.01807617 50.3274707 -1.01807617 50.3274707 -0.08007812 51.87304688 C1.06460418 53.75191329 2.2238924 55.62201904 3.40258789 57.47973633 C5 60 5 60 6.20800781 62.77880859 C7.91055001 65.38202181 7.91055001 65.38202181 11.5534668 65.65942383 C13.0182276 65.70049799 14.48390231 65.71471367 15.94921875 65.70703125 C17.10814384 65.72971321 17.10814384 65.72971321 18.29048157 65.75285339 C20.75644923 65.79581689 23.22119498 65.80457594 25.6875 65.8125 C27.36005872 65.83563784 29.03258824 65.8610017 30.70507812 65.88867188 C34.80349381 65.95160873 38.90114356 65.98387646 43 66 C43.39880371 64.67548828 43.39880371 64.67548828 43.80566406 63.32421875 C44.95153124 60.13490406 46.2851733 57.6546858 48.109375 54.8125 C48.69847656 53.86632812 49.28757812 52.92015625 49.89453125 51.9453125 C51.13596967 49.97469236 52.38869404 48.011139 53.65234375 46.0546875 C54.23628906 45.10851562 54.82023437 44.16234375 55.421875 43.1875 C55.96424805 42.33542969 56.50662109 41.48335937 57.06542969 40.60546875 C58.64975283 36.18856786 56.48964147 33.10137841 54.67138672 29.01147461 C53.93299561 27.47245483 53.93299561 27.47245483 53.1796875 25.90234375 C52.64472656 24.77119141 52.10976562 23.64003906 51.55859375 22.47460938 C50.43323663 20.11031502 49.30299809 17.74833813 48.16796875 15.38867188 C47.63558594 14.25880859 47.10320312 13.12894531 46.5546875 11.96484375 C45.81968018 10.42751587 45.81968018 10.42751587 45.06982422 8.85913086 C43.99397852 5.98390745 43.69189859 4.03666107 44 1 C45 0 45 0 47.5625 -0.0625 C48.7690625 -0.0315625 48.7690625 -0.0315625 50 0 C53.3801189 6.30921436 56.70907912 12.64381441 60 19 C60.38833008 19.74556152 60.77666016 20.49112305 61.17675781 21.25927734 C62.20155637 23.24638674 63.19915219 25.2445628 64.1875 27.25 C64.75855469 28.38953125 65.32960938 29.5290625 65.91796875 30.703125 C67.56934207 35.73474623 67.03227069 38.90581669 64.69067383 43.65625 C62.96442578 46.77310817 61.15636898 49.82631958 59.3125 52.875 C58.39307617 54.43154297 58.39307617 54.43154297 57.45507812 56.01953125 C56.23502235 58.07150204 54.9864376 60.10679683 53.70898438 62.12353516 C51.95127333 64.89915923 51.95127333 64.89915923 50.94726562 67.73193359 C49.61766557 70.76306236 48.7556468 72.11805385 46 74 C40.06619127 75.41100372 33.87809221 75.1229721 27.82275391 74.95361328 C24.87592876 74.87502477 21.93601802 74.87153322 18.98828125 74.87890625 C17.11453018 74.85858704 15.24081955 74.8339937 13.3671875 74.8046875 C12.48795624 74.80226044 11.60872498 74.79983337 10.70285034 74.79733276 C4.60680706 74.58449493 4.60680706 74.58449493 1.49682617 71.58886719 C1.00287354 70.73454102 0.5089209 69.88021484 0 69 C-0.43441406 68.26523438 -0.86882812 67.53046875 -1.31640625 66.7734375 C-1.72761719 65.98195313 -2.13882813 65.19046875 -2.5625 64.375 C-4.54804946 60.59936969 -6.63029091 56.93801142 -8.8671875 53.3046875 C-9.3717749 52.47275879 -9.8763623 51.64083008 -10.39624023 50.78369141 C-11.40950992 49.11796785 -12.43733057 47.4609936 -13.48071289 45.81396484 C-15.68392694 42.15518417 -16.98262795 39.82105797 -17.07421875 35.4921875 C-15.71255866 31.06555433 -13.92362017 27.02220668 -11.875 22.875 C-11.47482666 22.04766357 -11.07465332 21.22032715 -10.66235352 20.36791992 C-7.30061368 13.47277979 -3.73951033 6.69745098 0 0 Z " fill="#F9FAFA" transform="translate(90,62)"/>
<path d="M0 0 C3.12520786 0.07134693 6.24863821 0.16472282 9.37280273 0.27270508 C10.44594727 0.29139648 11.5190918 0.31008789 12.62475586 0.3293457 C19.4180195 0.56646513 23.97743634 1.55720468 29.81030273 5.08520508 C29.81030273 5.74520508 29.81030273 6.40520508 29.81030273 7.08520508 C30.47030273 7.08520508 31.13030273 7.08520508 31.81030273 7.08520508 C34.46990418 13.90043378 34.46990418 19.26997637 31.81030273 26.08520508 C31.15030273 26.08520508 30.49030273 26.08520508 29.81030273 26.08520508 C29.81030273 26.74520508 29.81030273 27.40520508 29.81030273 28.08520508 C28.31030273 29.71020508 28.31030273 29.71020508 26.81030273 31.08520508 C27.38780273 32.21700195 27.96530273 33.34879883 28.56030273 34.51489258 C29.31051264 35.99655715 30.0605012 37.47833381 30.81030273 38.96020508 C31.19186523 39.70657227 31.57342773 40.45293945 31.96655273 41.22192383 C32.50795898 42.29506836 32.50795898 42.29506836 33.06030273 43.38989258 C33.39545898 44.04973145 33.73061523 44.70957031 34.07592773 45.3894043 C34.81030273 47.08520508 34.81030273 47.08520508 34.81030273 49.08520508 C31.65075516 50.66497886 28.98579382 50.66083287 25.49780273 50.33129883 C19.54362025 47.57056596 17.16182184 39.872044 14.81030273 34.08520508 C14.81030273 33.42520508 14.81030273 32.76520508 14.81030273 32.08520508 C11.34530273 32.58020508 11.34530273 32.58020508 7.81030273 33.08520508 C7.8219043 34.22860352 7.83350586 35.37200195 7.84545898 36.55004883 C7.85483561 38.04093262 7.86393595 39.53181817 7.87280273 41.02270508 C7.88118164 41.77745117 7.88956055 42.53219727 7.89819336 43.30981445 C7.90682714 45.23514821 7.86254606 47.16056089 7.81030273 49.08520508 C6.81030273 50.08520508 6.81030273 50.08520508 4.77905273 50.21801758 C3.96436523 50.21543945 3.14967773 50.21286133 2.31030273 50.21020508 C1.49561523 50.2127832 0.68092773 50.21536133 -0.15844727 50.21801758 C-2.18969727 50.08520508 -2.18969727 50.08520508 -3.18969727 49.08520508 C-3.28800873 47.5865046 -3.31768183 46.08321969 -3.3190918 44.58129883 C-3.32224396 43.62360596 -3.32539612 42.66591309 -3.3286438 41.67919922 C-3.32661957 40.63755615 -3.32459534 39.59591309 -3.32250977 38.52270508 C-3.32346649 37.46108154 -3.32442322 36.39945801 -3.32540894 35.30566406 C-3.32609091 33.05607036 -3.32423545 30.80647471 -3.32006836 28.55688477 C-3.31472036 25.10013436 -3.32001281 21.64351391 -3.32641602 18.18676758 C-3.32575524 16.00707979 -3.32447408 13.82739208 -3.32250977 11.64770508 C-3.324534 10.60606201 -3.32655823 9.56441895 -3.3286438 8.49121094 C-3.32549164 7.53351807 -3.32233948 6.5758252 -3.3190918 5.58911133 C-3.3182962 4.7416333 -3.31750061 3.89415527 -3.31668091 3.02099609 C-3.13360677 0.23013842 -2.79663785 0.10882223 0 0 Z M7.81030273 9.08520508 C6.77123103 16.1130255 6.77123103 16.1130255 7.81030273 23.08520508 C15.02931444 24.36847832 15.02931444 24.36847832 21.81030273 22.08520508 C23.37460521 18.95660013 23.16657557 16.52917583 22.81030273 13.08520508 C21.03869047 10.41536671 21.03869047 10.41536671 17.81030273 9.08520508 C14.44801138 8.77207565 11.17566208 8.84995666 7.81030273 9.08520508 Z " fill="#FCFCFC" transform="translate(421.189697265625,76.914794921875)"/>
<path d="M0 0 C5.45034323 4.9789622 7.67694724 11.89084199 8.37109375 19.0859375 C8.52796674 26.05371296 7.72167572 32.66949369 3.36328125 38.3203125 C-0.9809107 42.85302599 -4.51044839 45.65671953 -10.91796875 46.28125 C-19.55801601 46.31203402 -24.90594843 45.75624995 -31.58203125 39.98046875 C-36.47688849 34.7107801 -37.73087222 28.71455629 -37.921875 21.6640625 C-37.53105122 13.01583363 -35.92374564 6.60672134 -29.51953125 0.60546875 C-20.75604236 -6.21263677 -9.02983847 -6.04381875 0 0 Z M-24.83203125 9.98046875 C-27.73651984 15.3933793 -27.49742457 21.99192886 -26.83203125 27.98046875 C-25.39397337 32.08212153 -23.49320237 34.539688 -19.83203125 36.98046875 C-15.64588451 37.58408916 -11.89766911 37.39745748 -7.95703125 35.85546875 C-4.6017313 32.89490997 -3.05694522 30.11012288 -2.58203125 25.61328125 C-2.42325558 19.08363197 -2.99337149 13.54344902 -6.89453125 8.10546875 C-13.61505858 3.24381068 -19.46637272 3.8295919 -24.83203125 9.98046875 Z " fill="#FCFCFC" transform="translate(289.83203125,81.01953125)"/>
<path d="M0 0 C0 5.61 0 11.22 0 17 C4.63007012 14.28447929 4.63007012 14.28447929 7.91015625 10.6796875 C16.24843846 0.56828441 16.24843846 0.56828441 21.515625 -1.140625 C24.4311362 -1.34788883 27.10335552 -1.36534255 30 -1 C29.42452563 2.36543237 28.44854626 3.84847059 25.9375 6.125 C22.9704766 8.99930392 20.14315631 11.93878221 17.4375 15.0625 C16.73496094 15.85785156 16.03242188 16.65320313 15.30859375 17.47265625 C13.71615893 19.94459433 13.71615893 19.94459433 14.41015625 22.765625 C16.52678985 27.07170023 19.17183409 30.82211758 22 34.6875 C23.08346151 36.19131391 24.16679985 37.69521657 25.25 39.19921875 C25.72953125 39.85752686 26.2090625 40.51583496 26.703125 41.1940918 C30 45.78501506 30 45.78501506 30 49 C28.25215533 49.13560864 26.50126074 49.23227209 24.75 49.3125 C23.77546875 49.37050781 22.8009375 49.42851563 21.796875 49.48828125 C19 49 19 49 16.9375 46.9375 C16.298125 45.968125 15.65875 44.99875 15 44 C14.43007324 43.14668091 14.43007324 43.14668091 13.84863281 42.27612305 C12.62599313 40.42709056 11.4347047 38.56103137 10.25 36.6875 C9.63318359 35.71973633 9.63318359 35.71973633 9.00390625 34.73242188 C8.00003689 33.15658043 6.99965644 31.57851733 6 30 C3.25073729 31.008063 2.1868898 31.66020037 0.75390625 34.265625 C-0.06660075 37.24155712 -0.16651827 39.67105907 -0.0625 42.75 C-0.00871145 44.49929724 0.02055373 46.24999669 0 48 C-1 49 -1 49 -3.28515625 49.09765625 C-4.65994141 49.08025391 -4.65994141 49.08025391 -6.0625 49.0625 C-6.98160156 49.05347656 -7.90070313 49.04445312 -8.84765625 49.03515625 C-9.55792969 49.02355469 -10.26820313 49.01195312 -11 49 C-11.7041579 39.51901685 -12.1055317 30.07114443 -12.125 20.5625 C-12.12951172 19.66450684 -12.13402344 18.76651367 -12.13867188 17.84130859 C-12.12540297 11.84044725 -11.70328303 5.95868161 -11 0 C-6.68380697 -0.90338924 -4.49202386 -0.89840477 0 0 Z " fill="#FDFDFD" transform="translate(211,78)"/>
<path d="M0 0 C1.65322266 0.01740234 1.65322266 0.01740234 3.33984375 0.03515625 C4.44457031 0.04417969 5.54929687 0.05320312 6.6875 0.0625 C7.54214844 0.07410156 8.39679688 0.08570312 9.27734375 0.09765625 C15.97624723 16.07196455 21.32194617 32.50784696 26.27734375 49.09765625 C24.03222113 50.22021756 22.76277726 50.23179387 20.27734375 50.22265625 C19.22546875 50.22652344 19.22546875 50.22652344 18.15234375 50.23046875 C16.27734375 50.09765625 16.27734375 50.09765625 14.27734375 49.09765625 C13.42578125 47.35546875 13.42578125 47.35546875 12.65234375 45.22265625 C12.39195312 44.52398437 12.1315625 43.8253125 11.86328125 43.10546875 C11.27734375 41.09765625 11.27734375 41.09765625 11.27734375 38.09765625 C3.35734375 38.59265625 3.35734375 38.59265625 -4.72265625 39.09765625 C-6.04265625 42.72765625 -7.36265625 46.35765625 -8.72265625 50.09765625 C-12.02265625 50.09765625 -15.32265625 50.09765625 -18.72265625 50.09765625 C-19.87656977 46.63591569 -19.55511394 45.88870102 -18.38330078 42.55029297 C-18.06612091 41.63279266 -17.74894104 40.71529236 -17.42214966 39.76998901 C-16.89414261 38.28862961 -16.89414261 38.28862961 -16.35546875 36.77734375 C-16.00128876 35.7629422 -15.64710876 34.74854065 -15.28219604 33.70339966 C-14.53140837 31.55842466 -13.77625213 29.41497455 -13.01708984 27.27294922 C-11.85098596 23.98205313 -10.69777856 20.68686398 -9.546875 17.390625 C-8.8171547 15.31093515 -8.08671053 13.23149912 -7.35546875 11.15234375 C-6.83353439 9.66491165 -6.83353439 9.66491165 -6.30105591 8.14743042 C-5.97757172 7.23623444 -5.65408752 6.32503845 -5.32080078 5.38623047 C-5.03576691 4.58031464 -4.75073303 3.7743988 -4.45706177 2.94406128 C-3.31918472 0.08326864 -3.22619897 0.11571732 0 0 Z M2.27734375 12.09765625 C1.77188339 14.17967153 1.2731754 16.26332692 0.77734375 18.34765625 C0.49890625 19.5078125 0.22046875 20.66796875 -0.06640625 21.86328125 C-0.85522077 25.20096337 -0.85522077 25.20096337 -0.72265625 29.09765625 C1.58734375 29.42765625 3.89734375 29.75765625 6.27734375 30.09765625 C7.62534072 25.59585506 6.80706531 22.68682093 5.33984375 18.28515625 C4.95957031 17.12371094 4.57929688 15.96226563 4.1875 14.765625 C3.88714844 13.88519531 3.58679688 13.00476563 3.27734375 12.09765625 C2.94734375 12.09765625 2.61734375 12.09765625 2.27734375 12.09765625 Z " fill="#FCFCFC" transform="translate(487.72265625,76.90234375)"/>
<path d="M0 0 C1.34888732 0.00015905 2.69778075 0.00584927 4.04663086 0.01586914 C5.10991859 0.01799156 5.10991859 0.01799156 6.19468689 0.02015686 C8.46699173 0.02577096 10.73919936 0.03832576 13.01147461 0.05102539 C14.54858257 0.05603858 16.08569206 0.0606018 17.62280273 0.06469727 C21.39823103 0.07574497 25.17358632 0.09301898 28.94897461 0.11352539 C30.07397461 6.86352539 30.07397461 6.86352539 28.94897461 9.11352539 C21.68897461 9.11352539 14.42897461 9.11352539 6.94897461 9.11352539 C7.27897461 12.74352539 7.60897461 16.37352539 7.94897461 20.11352539 C9.30893555 20.10192383 10.66889648 20.09032227 12.07006836 20.07836914 C13.84220241 20.06899277 15.61433794 20.05989241 17.38647461 20.05102539 C18.73322266 20.03845703 18.73322266 20.03845703 20.10717773 20.02563477 C20.96118164 20.02241211 21.81518555 20.01918945 22.69506836 20.01586914 C23.88120728 20.00801392 23.88120728 20.00801392 25.09130859 20 C26.94897461 20.11352539 26.94897461 20.11352539 27.94897461 21.11352539 C27.94897461 23.75352539 27.94897461 26.39352539 27.94897461 29.11352539 C21.01897461 29.11352539 14.08897461 29.11352539 6.94897461 29.11352539 C6.94897461 33.07352539 6.94897461 37.03352539 6.94897461 41.11352539 C8.52549805 41.10192383 10.10202148 41.09032227 11.72631836 41.07836914 C13.7797026 41.06899296 15.83308811 41.05989257 17.88647461 41.05102539 C18.92739258 41.04264648 19.96831055 41.03426758 21.04077148 41.02563477 C22.03012695 41.02241211 23.01948242 41.01918945 24.03881836 41.01586914 C24.95526123 41.01063232 25.8717041 41.00539551 26.81591797 41 C28.94897461 41.11352539 28.94897461 41.11352539 29.94897461 42.11352539 C29.61897461 44.75352539 29.28897461 47.39352539 28.94897461 50.11352539 C18.38897461 50.11352539 7.82897461 50.11352539 -3.05102539 50.11352539 C-4.24517056 47.72523505 -4.17785746 46.25309207 -4.18041992 43.58789062 C-4.18357208 42.65029404 -4.18672424 41.71269745 -4.18997192 40.74668884 C-4.18794769 39.73208084 -4.18592346 38.71747284 -4.18383789 37.67211914 C-4.18479462 36.6341066 -4.18575134 35.59609406 -4.18673706 34.52662659 C-4.18741831 32.33008768 -4.18556783 30.13354677 -4.18139648 27.93701172 C-4.1760421 24.56155919 -4.18134612 21.18623941 -4.18774414 17.81079102 C-4.18708346 15.68123343 -4.18580249 13.55167592 -4.18383789 11.42211914 C-4.18586212 10.40548691 -4.18788635 9.38885468 -4.18997192 8.34141541 C-4.18681976 7.40697098 -4.1836676 6.47252655 -4.18041992 5.50976562 C-4.17962433 4.6830687 -4.17882874 3.85637177 -4.17800903 3.00462341 C-3.96197723 -0.21262024 -3.28452412 0.12221363 0 0 Z " fill="#FDFDFD" transform="translate(372.051025390625,76.886474609375)"/>
<path d="M0 0 C1.15291566 2.47523069 2.00167438 4.72556021 2.796875 7.31640625 C3.0353717 8.04746078 3.27386841 8.77851532 3.51959229 9.53172302 C4.27867744 11.8706124 5.01448714 14.21610363 5.75 16.5625 C6.26020431 18.14827451 6.77190476 19.73356849 7.28515625 21.31835938 C8.54087404 25.20687387 9.77576574 29.10146453 11 33 C13.6192459 30.3807541 14.24173674 27.51728166 15.27734375 24.05859375 C15.712565 22.6567999 16.14812207 21.25511028 16.58398438 19.85351562 C17.26437481 17.64046141 17.94086813 15.42636282 18.61108398 13.21020508 C19.26011941 11.07291744 19.92396432 8.94068317 20.58984375 6.80859375 C20.78682358 6.14194199 20.98380341 5.47529022 21.18675232 4.78843689 C21.77319336 2.92749023 21.77319336 2.92749023 23 0 C25.75078884 -0.91692961 27.35948913 -1.10886083 30.1875 -1.0625 C32.0746875 -1.0315625 32.0746875 -1.0315625 34 -1 C35 1 35 1 34.51855469 2.82836914 C34.09944824 3.92072876 34.09944824 3.92072876 33.671875 5.03515625 C33.36636719 5.84533203 33.06085938 6.65550781 32.74609375 7.49023438 C32.25302734 8.76350586 32.25302734 8.76350586 31.75 10.0625 C28.76428402 17.89539687 26.04402729 25.77117995 23.46484375 33.74609375 C22.95572917 35.30989583 22.44661458 36.87369792 21.9375 38.4375 C21.68162109 39.23865234 21.42574219 40.03980469 21.16210938 40.86523438 C20.91138672 41.63029297 20.66066406 42.39535156 20.40234375 43.18359375 C20.18054443 43.86993896 19.95874512 44.55628418 19.73022461 45.26342773 C19 47 19 47 17 49 C14.46875 49.265625 14.46875 49.265625 11.5 49.25 C10.5203125 49.25515625 9.540625 49.2603125 8.53125 49.265625 C6 49 6 49 4 47 C3.17797852 44.95629883 3.17797852 44.95629883 2.37890625 42.45703125 C2.08306641 41.54759766 1.78722656 40.63816406 1.48242188 39.70117188 C1.17884766 38.74791016 0.87527344 37.79464844 0.5625 36.8125 C-1.38798913 30.73452418 -3.46153514 24.86264503 -6 19 C-7.12061091 15.89383564 -8.15783058 12.76231374 -9.1875 9.625 C-9.59645508 8.39716797 -9.59645508 8.39716797 -10.01367188 7.14453125 C-12 1.14074248 -12 1.14074248 -12 0 C-2.89051095 -1.36642336 -2.89051095 -1.36642336 0 0 Z M11 35 C12 37 12 37 12 37 Z " fill="#FCFCFC" transform="translate(320,78)"/>
<path d="M0 0 C2 2 2 2 2.22705078 4.52197266 C2.21657715 5.5588623 2.20610352 6.59575195 2.1953125 7.6640625 C2.18886719 8.78554687 2.18242187 9.90703125 2.17578125 11.0625 C2.15902344 12.238125 2.14226562 13.41375 2.125 14.625 C2.11597656 15.80835937 2.10695312 16.99171875 2.09765625 18.2109375 C2.07402812 21.14082523 2.04108514 24.0703134 2 27 C1.34 27.33 0.68 27.66 0 28 C-0.85319945 24.37749325 -1.06555517 21.19270837 -0.87890625 17.48046875 C-0.83056641 16.45888672 -0.78222656 15.43730469 -0.73242188 14.38476562 C-0.67634766 13.32966797 -0.62027344 12.27457031 -0.5625 11.1875 C-0.51029297 10.11306641 -0.45808594 9.03863281 -0.40429688 7.93164062 C-0.2750247 5.28743696 -0.14007564 2.64364973 0 0 Z " fill="#F4F5F4" transform="translate(200,94)"/>
<path d="M0 0 C0.66 0 1.32 0 2 0 C3.03544174 1.90881434 4.05290085 3.82739204 5.0625 5.75 C5.91521484 7.35101563 5.91521484 7.35101563 6.78515625 8.984375 C8.01044806 12.02593537 8.25348607 13.04893565 7 16 C5 15 5 15 4.0625 12.5 C3.711875 11.345 3.36125 10.19 3 9 C2.46230805 7.37368049 1.92050675 5.74871493 1.375 4.125 C0.91666667 2.75 0.45833333 1.375 0 0 Z " fill="#F3F3F3" transform="translate(143,85)"/>
<path d="M0 0 C0.33 0.99 0.66 1.98 1 3 C0.01 3.495 0.01 3.495 -1 4 C-0.67 2.68 -0.34 1.36 0 0 Z M-2 4 C-1.34 4.33 -0.68 4.66 0 5 C-0.309375 5.5775 -0.61875 6.155 -0.9375 6.75 C-1.92583364 8.84294184 -2.5168613 10.74535275 -3 13 C-3.99 12.67 -4.98 12.34 -6 12 C-4.68 9.36 -3.36 6.72 -2 4 Z " fill="#F2F2F2" transform="translate(82,78)"/>
<path d="M0 0 C0.95465783 2.16967689 1.14401212 3.56328793 0.3984375 5.82421875 C-0.35870385 7.5684743 -1.17609198 9.28627131 -2 11 C-2.66 10.67 -3.32 10.34 -4 10 C-2.99806563 6.20696275 -2.18975773 3.28463659 0 0 Z " fill="#F6F6F6" transform="translate(350,87)"/>
</svg>
