<?xml version="1.0" encoding="UTF-8"?>
<svg version="1.1" xmlns="http://www.w3.org/2000/svg" width="190" height="64">
<path d="M0 0 C62.7 0 125.4 0 190 0 C190 21.12 190 42.24 190 64 C127.3 64 64.6 64 0 64 C0 42.88 0 21.76 0 0 Z " fill="#292929" transform="translate(0,0)"/>
<path d="M0 0 C3.7742893 1.16659851 5.30801297 1.74050024 7.4375 5.0625 C8.23740863 9.07853612 8.05590725 12.03182124 5.9375 15.5625 C2.40161027 17.68403384 -0.54151723 17.853513 -4.5625 17.0625 C-7.0625 15.5625 -7.0625 15.5625 -8.5625 13.0625 C-9.27623503 8.06635481 -9.32870649 6.20020054 -6.5 2 C-3.5625 0.0625 -3.5625 0.0625 0 0 Z " fill="#ECECE5" transform="translate(84.5625,25.9375)"/>
<path d="M0 0 C8.21766784 -0.36254417 8.21766784 -0.36254417 11.5625 1.1875 C13 3 13 3 13.375 5.4375 C13 8 13 8 11.875 10 C10.69689905 12.09393753 10.69689905 12.09393753 11.875 14.75 C12.24625 15.4925 12.6175 16.235 13 17 C11.68 17 10.36 17 9 17 C8.34 15.02 7.68 13.04 7 11 C6.01 11 5.02 11 4 11 C4 12.98 4 14.96 4 17 C2.68 17 1.36 17 0 17 C0 11.39 0 5.78 0 0 Z " fill="#D7E2DF" transform="translate(133,26)"/>
<path d="M0 0 C0.66 0 1.32 0 2 0 C1.53827942 3.13969992 0.88743345 5.20011832 -0.6875 8 C-2.30552187 10.8725308 -2.30552187 10.8725308 -1.375 13.5625 C-0.92125 14.366875 -0.4675 15.17125 0 16 C0.38542969 16.85851562 0.77085938 17.71703125 1.16796875 18.6015625 C2.83459928 21.31526877 2.83459928 21.31526877 6.13671875 21.70703125 C7.30847656 21.74183594 8.48023438 21.77664062 9.6875 21.8125 C10.86699219 21.86019531 12.04648437 21.90789063 13.26171875 21.95703125 C14.61716797 21.97830078 14.61716797 21.97830078 16 22 C16.30164063 21.23171875 16.60328125 20.4634375 16.9140625 19.671875 C18 17 18 17 19.375 14.25 C20.20048154 9.95749598 18.89656631 7.75225494 16.9453125 3.953125 C16 2 16 2 16 0 C16.66 0 17.32 0 18 0 C22.91457724 8.60476153 22.91457724 8.60476153 23.1875 13.0625 C22.795625 14.031875 22.40375 15.00125 22 16 C21.69320312 16.77988281 21.38640625 17.55976562 21.0703125 18.36328125 C19.6460182 21.20744657 18.44901534 22.95481166 16 25 C11.0069824 26.52298982 6.9757708 26.61251831 2 25 C-1.49174511 21.46460808 -3.56373874 17.74979345 -5 13 C-4.71762073 9.48594686 -3.56645724 6.78777345 -1.9375 3.6875 C-1.57527344 2.99011719 -1.21304687 2.29273438 -0.83984375 1.57421875 C-0.56269531 1.05472656 -0.28554688 0.53523438 0 0 Z " fill="#DBDBDB" transform="translate(20,22)"/>
<path d="M0 0 C2.32421875 0.06640625 2.32421875 0.06640625 5 1 C6.2287699 3.3998938 7.04436044 5.39634323 7.8125 7.9375 C8.02841797 8.58396484 8.24433594 9.23042969 8.46679688 9.89648438 C10 14.58370536 10 14.58370536 10 17 C8.68 17 7.36 17 6 17 C5.67 16.01 5.34 15.02 5 14 C2.03 13.505 2.03 13.505 -1 13 C-1.33 14.32 -1.66 15.64 -2 17 C-3.32 16.67 -4.64 16.34 -6 16 C-5.37879354 14.08210046 -4.75288109 12.16572478 -4.125 10.25 C-3.60292969 8.64898437 -3.60292969 8.64898437 -3.0703125 7.015625 C-2.1932578 4.54450739 -1.24073795 2.3026308 0 0 Z " fill="#F1EAD6" transform="translate(156,26)"/>
<path d="M0 0 C1.32 0 2.64 0 4 0 C4.33 1.98 4.66 3.96 5 6 C5.7425 5.01 6.485 4.02 7.25 3 C8.515625 1.3125 8.515625 1.3125 10 0 C11.32 0 12.64 0 14 0 C12.70700306 2.88437779 11.34058637 4.87219421 9 7 C9.268125 7.53625 9.53625 8.0725 9.8125 8.625 C11.20833333 11.41666667 12.60416667 14.20833333 14 17 C12.68 17 11.36 17 10 17 C7.8125 14 7.8125 14 6 11 C5.67 11 5.34 11 5 11 C4.67 12.98 4.34 14.96 4 17 C2.68 17 1.36 17 0 17 C0 11.39 0 5.78 0 0 Z " fill="#F8F7F0" transform="translate(58,26)"/>
<path d="M0 0 C3.96 0 7.92 0 12 0 C12 0.99 12 1.98 12 3 C9.36 3 6.72 3 4 3 C4 4.32 4 5.64 4 7 C6.31 7 8.62 7 11 7 C11 7.99 11 8.98 11 10 C8.69 10 6.38 10 4 10 C4 11.32 4 12.64 4 14 C6.64 14 9.28 14 12 14 C12 14.99 12 15.98 12 17 C8.04 17 4.08 17 0 17 C0 11.39 0 5.78 0 0 Z " fill="#D3DEDA" transform="translate(116,26)"/>
<path d="M0 0 C1.859375 0.18359375 1.859375 0.18359375 4 1 C5.265625 3.28515625 5.265625 3.28515625 6.25 6.0625 C6.75273438 7.44115234 6.75273438 7.44115234 7.265625 8.84765625 C7.50796875 9.55792969 7.7503125 10.26820312 8 11 C8.17015625 10.28972656 8.3403125 9.57945313 8.515625 8.84765625 C8.75796875 7.92855469 9.0003125 7.00945313 9.25 6.0625 C9.48203125 5.14597656 9.7140625 4.22945312 9.953125 3.28515625 C11 1 11 1 13.109375 0.18359375 C13.73328125 0.12300781 14.3571875 0.06242187 15 0 C13.96232949 6.06732052 12.66038099 11.4373852 10 17 C8.35 17 6.7 17 5 17 C4.16080602 14.73117913 3.32848276 12.46022973 2.5 10.1875 C2.26152344 9.54490234 2.02304688 8.90230469 1.77734375 8.24023438 C0.72931254 5.35066261 0 3.09923939 0 0 Z " fill="#E4E4DE" transform="translate(96,26)"/>
<path d="M0 0 C4.55555556 0.55555556 4.55555556 0.55555556 6 2 C6.1875 5.4375 6.1875 5.4375 6 9 C5.34 9.66 4.68 10.32 4 11 C-0.55555556 10.44444444 -0.55555556 10.44444444 -2 9 C-2.1875 5.5625 -2.1875 5.5625 -2 2 C-1.34 1.34 -0.68 0.68 0 0 Z " fill="#302D2F" transform="translate(82,29)"/>
<path d="M0 0 C0.33 1.32 0.66 2.64 1 4 C2.32 4 3.64 4 5 4 C5.33 3.34 5.66 2.68 6 2 C8.78388975 3.70625501 9.85384206 4.47626739 10.75 7.6875 C10.87375 8.8321875 10.87375 8.8321875 11 10 C9.68 10 8.36 10 7 10 C6.67 9.01 6.34 8.02 6 7 C3.03 6.505 3.03 6.505 0 6 C-0.33 7.32 -0.66 8.64 -1 10 C-2.32 9.67 -3.64 9.34 -5 9 C-2.25 2.25 -2.25 2.25 0 0 Z " fill="#EAF1EF" transform="translate(155,33)"/>
<path d="M0 0 C0.66 0 1.32 0 2 0 C1.53827942 3.13969992 0.88743345 5.20011832 -0.6875 8 C-2.30552187 10.8725308 -2.30552187 10.8725308 -1.375 13.5625 C-0.92125 14.366875 -0.4675 15.17125 0 16 C0.39574219 16.85851562 0.79148437 17.71703125 1.19921875 18.6015625 C2.81463689 21.28245066 2.81463689 21.28245066 5.91796875 21.70703125 C6.99691406 21.74183594 8.07585938 21.77664062 9.1875 21.8125 C10.81751953 21.88404297 10.81751953 21.88404297 12.48046875 21.95703125 C13.31191406 21.97121094 14.14335938 21.98539063 15 22 C15 22.33 15 22.66 15 23 C10.38 23.33 5.76 23.66 1 24 C-5.05388828 13.74545455 -5.05388828 13.74545455 -4.8125 10.40625 C-4.01308723 8.03875832 -3.09927545 5.89862103 -1.9375 3.6875 C-1.57527344 2.99011719 -1.21304687 2.29273438 -0.83984375 1.57421875 C-0.56269531 1.05472656 -0.28554688 0.53523438 0 0 Z " fill="#CBCCCC" transform="translate(20,22)"/>
<path d="M0 0 C1.32 0 2.64 0 4 0 C4.33 1.98 4.66 3.96 5 6 C5.7425 5.01 6.485 4.02 7.25 3 C8.515625 1.3125 8.515625 1.3125 10 0 C11.32 0 12.64 0 14 0 C12.51697598 4.44907205 8.91714499 6.74579392 5 9 C4.34 9 3.68 9 3 9 C3 6.36 3 3.72 3 1 C2.34 1 1.68 1 1 1 C1 6.28 1 11.56 1 17 C0.67 17 0.34 17 0 17 C0 11.39 0 5.78 0 0 Z " fill="#A7CBCF" transform="translate(58,26)"/>
<path d="M0 0 C0.99 0 1.98 0 3 0 C2.71682074 1.60568666 2.42312209 3.20952047 2.125 4.8125 C1.96257812 5.70582031 1.80015625 6.59914063 1.6328125 7.51953125 C1 10 1 10 -1 13 C-1 11.68 -1 10.36 -1 9 C-1.66 9 -2.32 9 -3 9 C-2.01 6.03 -1.02 3.06 0 0 Z " fill="#DADDD3" transform="translate(108,26)"/>
<path d="M0 0 C0.66 0.33 1.32 0.66 2 1 C3.0013988 4.00419641 3.51421457 6.87709365 4 10 C2.68 10 1.36 10 0 10 C-0.33 9.01 -0.66 8.02 -1 7 C-1.99 7.495 -1.99 7.495 -3 8 C-1.125 2.25 -1.125 2.25 0 0 Z " fill="#9FACB7" transform="translate(156,27)"/>
<path d="M0 0 C0.66 0 1.32 0 2 0 C7.05908096 8.85776805 7.05908096 8.85776805 6.8125 13.625 C6.544375 14.40875 6.27625 15.1925 6 16 C5.34 15.67 4.68 15.34 4 15 C3.855625 13.948125 3.71125 12.89625 3.5625 11.8125 C2.99135607 7.9414134 1.82805647 5.4176708 0 2 C0 1.34 0 0.68 0 0 Z " fill="#E2E2E3" transform="translate(36,22)"/>
<path d="M0 0 C5.75 -0.125 5.75 -0.125 8 1 C7.67 3.97 7.34 6.94 7 10 C6.67 10 6.34 10 6 10 C5.67 8.02 5.34 6.04 5 4 C2.03 3.505 2.03 3.505 -1 3 C-0.67 2.01 -0.34 1.02 0 0 Z " fill="#E4EEF2" transform="translate(82,27)"/>
<path d="M0 0 C0.66 0 1.32 0 2 0 C1.39288519 4.12838068 0.12477683 7.40422382 -2 11 C-2.99 11.33 -3.98 11.66 -5 12 C-3.68938409 7.76570244 -2.05643741 3.92592596 0 0 Z " fill="#DBDCDC" transform="translate(20,22)"/>
<path d="M0 0 C0.66 0.33 1.32 0.66 2 1 C2 3.64 2 6.28 2 9 C1.01 9 0.02 9 -1 9 C-2.60031344 5.79937313 -1.03173691 3.27728194 0 0 Z " fill="#EED9BC" transform="translate(90,30)"/>
<path d="M0 0 C-0.639375 0.268125 -1.27875 0.53625 -1.9375 0.8125 C-4.33131686 1.88667752 -4.33131686 1.88667752 -5 5 C-5.99 5.33 -6.98 5.66 -8 6 C-8.33 8.31 -8.66 10.62 -9 13 C-9.33 13 -9.66 13 -10 13 C-10.60737527 5.8329718 -10.60737527 5.8329718 -7.8125 2 C-4.80512535 -0.13857753 -3.58848221 -0.51264032 0 0 Z " fill="#B0CDE2" transform="translate(86,26)"/>
<path d="M0 0 C0.66 0 1.32 0 2 0 C1.67 2.64 1.34 5.28 1 8 C-0.32 8 -1.64 8 -3 8 C-3 7.34 -3 6.68 -3 6 C-2.34 6 -1.68 6 -1 6 C-0.67 4.02 -0.34 2.04 0 0 Z " fill="#F5F8F3" transform="translate(105,35)"/>
<path d="M0 0 C2.475 0.495 2.475 0.495 5 1 C5 2.32 5 3.64 5 5 C3.35 5 1.7 5 0 5 C0 3.35 0 1.7 0 0 Z " fill="#282C33" transform="translate(137,29)"/>
<path d="M0 0 C2.475 0.495 2.475 0.495 5 1 C3.84826645 3.46800047 2.95216435 5.04783565 1 7 C1.020625 6.21625 1.04125 5.4325 1.0625 4.625 C1.18684063 2.01885039 1.18684063 2.01885039 0 0 Z " fill="#DCD4C2" transform="translate(156,26)"/>
</svg>
